<svg xmlns="http://www.w3.org/2000/svg" viewBox="0 0 1024 1024">
  <defs>
    <linearGradient id="bg" x1="0%" y1="0%" x2="100%" y2="100%">
      <stop offset="0%" style="stop-color:#1a1a2e"/>
      <stop offset="50%" style="stop-color:#16213e"/>
      <stop offset="100%" style="stop-color:#0f3460"/>
    </linearGradient>
    <linearGradient id="glow" x1="0%" y1="0%" x2="100%" y2="100%">
      <stop offset="0%" style="stop-color:#00d4ff"/>
      <stop offset="100%" style="stop-color:#7b2ff7"/>
    </linearGradient>
    <filter id="shadow">
      <feDropShadow dx="0" dy="4" stdDeviation="8" flood-color="#00d4ff" flood-opacity="0.3"/>
    </filter>
  </defs>
  <!-- Background -->
  <rect width="1024" height="1024" rx="200" fill="url(#bg)"/>
  <!-- Border glow -->
  <rect x="20" y="20" width="984" height="984" rx="180" fill="none" stroke="url(#glow)" stroke-width="4" opacity="0.6"/>
  <!-- Terminal window frame -->
  <rect x="120" y="160" width="784" height="704" rx="24" fill="#0a0a1a" stroke="#00d4ff" stroke-width="3" opacity="0.9" filter="url(#shadow)"/>
  <!-- Title bar -->
  <rect x="120" y="160" width="784" height="56" rx="24" fill="#141428"/>
  <rect x="120" y="192" width="784" height="24" fill="#141428"/>
  <!-- Window dots -->
  <circle cx="168" cy="188" r="12" fill="#ff5f57"/>
  <circle cx="208" cy="188" r="12" fill="#ffbd2e"/>
  <circle cx="248" cy="188" r="12" fill="#28c840"/>
  <!-- Prompt line 1: chevron + text -->
  <text x="172" y="296" font-family="monospace" font-size="52" font-weight="bold" fill="#00d4ff">❯</text>
  <text x="228" y="296" font-family="monospace" font-size="48" fill="#e0e0e0">nova</text>
  <text x="420" y="296" font-family="monospace" font-size="48" fill="#7b2ff7">term</text>
  <!-- Cursor -->
  <rect x="620" y="260" width="28" height="48" fill="#00d4ff" opacity="0.8">
    <animate attributeName="opacity" values="0.8;0.2;0.8" dur="1.2s" repeatCount="indefinite"/>
  </rect>
  <!-- Output lines -->
  <rect x="172" y="340" width="480" height="4" rx="2" fill="#28c840" opacity="0.6"/>
  <rect x="172" y="400" width="360" height="4" rx="2" fill="#e0e0e0" opacity="0.3"/>
  <rect x="172" y="460" width="520" height="4" rx="2" fill="#e0e0e0" opacity="0.3"/>
  <rect x="172" y="520" width="280" height="4" rx="2" fill="#7b2ff7" opacity="0.4"/>
  <!-- Prompt line 2 -->
  <text x="172" y="620" font-family="monospace" font-size="52" font-weight="bold" fill="#00d4ff">❯</text>
  <rect x="228" y="588" width="16" height="44" fill="#00d4ff" opacity="0.6"/>
  <!-- Bottom accent -->
  <rect x="120" y="840" width="784" height="4" rx="2" fill="url(#glow)" opacity="0.5"/>
  <!-- N logo watermark -->
  <text x="780" y="820" font-family="monospace" font-size="64" font-weight="bold" fill="#00d4ff" opacity="0.15">N</text>
</svg>